{
  "accessors": [
    {
      "bufferView": 2,
      "componentType": 5126,
      "count": 65532,
      "max": [
        0.2511110007762909,
        1.7465330362319946,
        0.18922699987888336
      ],
      "min": [
        -0.23782899975776672,
        0.2843790054321289,
        -0.24198000133037567
      ],
      "type": "VEC3"
    },
    {
      "bufferView": 2,
      "byteOffset": 786384,
      "componentType": 5126,
      "count": 65532,
      "max": [
        0.9999914765357971,
        0.9987630844116211,
        0.9999043345451355
      ],
      "min": [
        -0.9999967217445374,
        -0.9015277624130249,
        -0.9999772906303406
      ],
      "type": "VEC3"
    },
    {
      "bufferView": 1,
      "componentType": 5126,
      "count": 65532,
      "max": [
        0.9897410273551941,
        0.9915369749069214
      ],
      "min": [
        0.02562200091779232,
        0.00012199999764561653
      ],
      "type": "VEC2"
    },
    {
      "bufferView": 0,
      "componentType": 5125,
      "count": 65532,
      "type": "SCALAR"
    },
    {
      "bufferView": 2,
      "byteOffset": 1572768,
      "componentType": 5126,
      "count": 65532,
      "max": [
        0.24180099368095398,
        1.750393033027649,
        0.18278999626636505
      ],
      "min": [
        -0.24490700662136078,
        0.13393999636173248,
        -0.2395630031824112
      ],
      "type": "VEC3"
    },
    {
      "bufferView": 2,
      "byteOffset": 2359152,
      "componentType": 5126,
      "count": 65532,
      "max": [
        0.9998651146888733,
        0.9396781921386719,
        0.9999966025352478
      ],
      "min": [
        -0.9999291896820068,
        -0.9200987815856934,
        -0.999781608581543
      ],
      "type": "VEC3"
    },
    {
      "bufferView": 1,
      "byteOffset": 524256,
      "componentType": 5126,
      "count": 65532,
      "max": [
        0.979341983795166,
        0.9961599707603455
      ],
      "min": [
        0.01054999977350235,
        2.8000000384054147e-05
      ],
      "type": "VEC2"
    },
    {
      "bufferView": 0,
      "byteOffset": 262128,
      "componentType": 5125,
      "count": 65532,
      "type": "SCALAR"
    },
    {
      "bufferView": 2,
      "byteOffset": 3145536,
      "componentType": 5126,
      "count": 65532,
      "max": [
        0.27869200706481934,
        1.592494010925293,
        0.23192599415779114
      ],
      "min": [
        -0.21664899587631226,
        0.011390999890863895,
        -0.25797799229621887
      ],
      "type": "VEC3"
    },
    {
      "bufferView": 2,
      "byteOffset": 3931920,
      "componentType": 5126,
      "count": 65532,
      "max": [
        0.9999805688858032,
        0.9714792370796204,
        0.9999130964279175
      ],
      "min": [
        -0.9999968409538269,
        -0.9899101853370667,
        -0.9999775290489197
      ],
      "type": "VEC3"
    },
    {
      "bufferView": 1,
      "byteOffset": 1048512,
      "componentType": 5126,
      "count": 65532,
      "max": [
        0.9999510049819946,
        0.9941200017929077
      ],
      "min": [
        0.00774399982765317,
        0.0008829999715089798
      ],
      "type": "VEC2"
    },
    {
      "bufferView": 0,
      "byteOffset": 524256,
      "componentType": 5125,
      "count": 65532,
      "type": "SCALAR"
    },
    {
      "bufferView": 2,
      "byteOffset": 4718304,
      "componentType": 5126,
      "count": 65532,
      "max": [
        0.2722730040550232,
        1.752437949180603,
        0.24873800575733185
      ],
      "min": [
        -0.27869200706481934,
        0.009378000162541866,
        -0.217398002743721
      ],
      "type": "VEC3"
    },
    {
      "bufferView": 2,
      "byteOffset": 5504688,
      "componentType": 5126,
      "count": 65532,
      "max": [
        0.9999600648880005,
        0.9996528029441833,
        0.9999406337738037
      ],
      "min": [
        -0.999480128288269,
        -0.9902548789978027,
        -0.9999682903289795
      ],
      "type": "VEC3"
    },
    {
      "bufferView": 1,
      "byteOffset": 1572768,
      "componentType": 5126,
      "count": 65532,
      "max": [
        0.9551029801368713,
        0.9963409900665283
      ],
      "min": [
        0.0049430001527071,
        0.012772000394761562
      ],
      "type": "VEC2"
    },
    {
      "bufferView": 0,
      "byteOffset": 786384,
      "componentType": 5125,
      "count": 65532,
      "type": "SCALAR"
    },
    {
      "bufferView": 2,
      "byteOffset": 6291072,
      "componentType": 5126,
      "count": 65532,
      "max": [
        0.2783859968185425,
        1.5371429920196533,
        0.22606800496578217
      ],
      "min": [
        -0.23626799881458282,
        0.011083000339567661,
        -0.24812699854373932
      ],
      "type": "VEC3"
    },
    {
      "bufferView": 2,
      "byteOffset": 7077456,
      "componentType": 5126,
      "count": 65532,
      "max": [
        0.9999504089355469,
        0.9828341007232666,
        0.9997595548629761
      ],
      "min": [
        -0.9999908804893494,
        -0.9902483820915222,
        -0.999994695186615
      ],
      "type": "VEC3"
    },
    {
      "bufferView": 1,
      "byteOffset": 2097024,
      "componentType": 5126,
      "count": 65532,
      "max": [
        0.9052760004997253,
        0.9907659888267517
      ],
      "min": [
        8.800000068731606e-05,
        0.02707500010728836
      ],
      "type": "VEC2"
    },
    {
      "bufferView": 0,
      "byteOffset": 1048512,
      "componentType": 5125,
      "count": 65532,
      "type": "SCALAR"
    },
    {
      "bufferView": 2,
      "byteOffset": 7863840,
      "componentType": 5126,
      "count": 65532,
      "max": [
        0.26083600521087646,
        1.733204960823059,
        0.2592400014400482
      ],
      "min": [
        -0.2287990003824234,
        0.02389400079846382,
        -0.2582089900970459
      ],
      "type": "VEC3"
    },
    {
      "bufferView": 2,
      "byteOffset": 8650224,
      "componentType": 5126,
      "count": 65532,
      "max": [
        0.9998490214347839,
        0.999967634677887,
        0.9999334812164307
      ],
      "min": [
        -0.999668300151825,
        -0.987712025642395,
        -0.9999015927314758
      ],
      "type": "VEC3"
    },
    {
      "bufferView": 1,
      "byteOffset": 2621280,
      "componentType": 5126,
      "count": 65532,
      "max": [
        0.9091449975967407,
        0.9751920104026794
      ],
      "min": [
        0.012280000373721123,
        0.0010529999854043126
      ],
      "type": "VEC2"
    },
    {
      "bufferView": 0,
      "byteOffset": 1310640,
      "componentType": 5125,
      "count": 65532,
      "type": "SCALAR"
    },
    {
      "bufferView": 2,
      "byteOffset": 9436608,
      "componentType": 5126,
      "count": 65532,
      "max": [
        0.2608110010623932,
        1.5942939519882202,
        0.19586500525474548
      ],
      "min": [
        -0.23239000141620636,
        0.0013849999522790313,
        -0.222461998462677
      ],
      "type": "VEC3"
    },
    {
      "bufferView": 2,
      "byteOffset": 10222992,
      "componentType": 5126,
      "count": 65532,
      "max": [
        0.9999148845672607,
        0.9927919507026672,
        0.9996886253356934
      ],
      "min": [
        -0.9999459385871887,
        -0.9976986050605774,
        -0.9999754428863525
      ],
      "type": "VEC3"
    },
    {
      "bufferView": 1,
      "byteOffset": 3145536,
      "componentType": 5126,
      "count": 65532,
      "max": [
        0.9805139899253845,
        0.9792580008506775
      ],
      "min": [
        0.01924300007522106,
        0.0010610000463202596
      ],
      "type": "VEC2"
    },
    {
      "bufferView": 0,
      "byteOffset": 1572768,
      "componentType": 5125,
      "count": 65532,
      "type": "SCALAR"
    },
    {
      "bufferView": 2,
      "byteOffset": 11009376,
      "componentType": 5126,
      "count": 65532,
      "max": [
        0.25339600443840027,
        1.517240047454834,
        0.2153329998254776
      ],
      "min": [
        -0.21544699370861053,
        0.009654000401496887,
        -0.2592400014400482
      ],
      "type": "VEC3"
    },
    {
      "bufferView": 2,
      "byteOffset": 11795760,
      "componentType": 5126,
      "count": 65532,
      "max": [
        0.9999560713768005,
        0.9857468008995056,
        0.9999176263809204
      ],
      "min": [
        -0.999926745891571,
        -0.9902560114860535,
        -0.9999943971633911
      ],
      "type": "VEC3"
    },
    {
      "bufferView": 1,
      "byteOffset": 3669792,
      "componentType": 5126,
      "count": 65532,
      "max": [
        0.9999639987945557,
        0.9969109892845154
      ],
      "min": [
        3.000000106112566e-06,
        0.03888100013136864
      ],
      "type": "VEC2"
    },
    {
      "bufferView": 0,
      "byteOffset": 1834896,
      "componentType": 5125,
      "count": 65532,
      "type": "SCALAR"
    },
    {
      "bufferView": 2,
      "byteOffset": 12582144,
      "componentType": 5126,
      "count": 65532,
      "max": [
        0.2738339900970459,
        1.6247849464416504,
        0.2128179967403412
      ],
      "min": [
        -0.22765900194644928,
        -0.0,
        -0.23514500260353088
      ],
      "type": "VEC3"
    },
    {
      "bufferView": 2,
      "byteOffset": 13368528,
      "componentType": 5126,
      "count": 65532,
      "max": [
        0.999974250793457,
        0.9998610615730286,
        0.9999653100967407
      ],
      "min": [
        -0.9998335838317871,
        -0.9964883327484131,
        -0.999962568283081
      ],
      "type": "VEC3"
    },
    {
      "bufferView": 1,
      "byteOffset": 4194048,
      "componentType": 5126,
      "count": 65532,
      "max": [
        0.9868670105934143,
        0.9966769814491272
      ],
      "min": [
        6.500000017695129e-05,
        9.7999996796716e-05
      ],
      "type": "VEC2"
    },
    {
      "bufferView": 0,
      "byteOffset": 2097024,
      "componentType": 5125,
      "count": 65532,
      "type": "SCALAR"
    },
    {
      "bufferView": 2,
      "byteOffset": 14154912,
      "componentType": 5126,
      "count": 65532,
      "max": [
        0.27434200048446655,
        1.611793041229248,
        0.21254299581050873
      ],
      "min": [
        -0.23761999607086182,
        0.005253999959677458,
        -0.24460700154304504
      ],
      "type": "VEC3"
    },
    {
      "bufferView": 2,
      "byteOffset": 14941296,
      "componentType": 5126,
      "count": 65532,
      "max": [
        0.9998911619186401,
        0.9998372793197632,
        0.9999303817749023
      ],
      "min": [
        -0.9997451305389404,
        -0.986461877822876,
        -0.999991774559021
      ],
      "type": "VEC3"
    },
    {
      "bufferView": 1,
      "byteOffset": 4718304,
      "componentType": 5126,
      "count": 65532,
      "max": [
        0.989795982837677,
        0.9775480031967163
      ],
      "min": [
        0.006703999824821949,
        0.007143999915570021
      ],
      "type": "VEC2"
    },
    {
      "bufferView": 0,
      "byteOffset": 2359152,
      "componentType": 5125,
      "count": 65532,
      "type": "SCALAR"
    },
    {
      "bufferView": 2,
      "byteOffset": 15727680,
      "componentType": 5126,
      "count": 65532,
      "max": [
        0.2783859968185425,
        1.7536770105361938,
        0.21515299379825592
      ],
      "min": [
        -0.22297699749469757,
        0.009654000401496887,
        -0.2505429983139038
      ],
      "type": "VEC3"
    },
    {
      "bufferView": 2,
      "byteOffset": 16514064,
      "componentType": 5126,
      "count": 65532,
      "max": [
        0.9999442100524902,
        0.9963341355323792,
        0.9999960660934448
      ],
      "min": [
        -0.9998090267181396,
        -0.9787045121192932,
        -0.9999756217002869
      ],
      "type": "VEC3"
    },
    {
      "bufferView": 1,
      "byteOffset": 5242560,
      "componentType": 5126,
      "count": 65532,
      "max": [
        0.9997090101242065,
        0.9964249730110168
      ],
      "min": [
        0.02914699912071228,
        0.003134000115096569
      ],
      "type": "VEC2"
    },
    {
      "bufferView": 0,
      "byteOffset": 2621280,
      "componentType": 5125,
      "count": 65532,
      "type": "SCALAR"
    },
    {
      "bufferView": 2,
      "byteOffset": 17300448,
      "componentType": 5126,
      "count": 29148,
      "max": [
        0.2191459983587265,
        1.6246349811553955,
        0.20641399919986725
      ],
      "min": [
        -0.27869200706481934,
        0.009378000162541866,
        -0.24421900510787964
      ],
      "type": "VEC3"
    },
    {
      "bufferView": 2,
      "byteOffset": 17650224,
      "componentType": 5126,
      "count": 29148,
      "max": [
        0.9999372363090515,
        0.9994854927062988,
        0.9999830722808838
      ],
      "min": [
        -0.9999632835388184,
        -0.99025559425354,
        -0.9999940991401672
      ],
      "type": "VEC3"
    },
    {
      "bufferView": 1,
      "byteOffset": 5766816,
      "componentType": 5126,
      "count": 29148,
      "max": [
        0.9155600070953369,
        0.9956539869308472
      ],
      "min": [
        0.04981499910354614,
        0.051291000097990036
      ],
      "type": "VEC2"
    },
    {
      "bufferView": 0,
      "byteOffset": 2883408,
      "componentType": 5125,
      "count": 29148,
      "type": "SCALAR"
    }
  ],
  "asset": {
    "extras": {
      "author": "poledustaren (https://sketchfab.com/poledustaren)",
      "license": "COPYRIGHT TO poledustaren",
      "source": "https://sketchfab.com/3d-models/6fb65e526d834541bd3250a4771ee9b3-8c75bd4516bf471cb858bd89cb3cfbdc",
      "title": "6fb65e526d834541bd3250a4771ee9b3"
    },
    "generator": "Sketchfab-16.74.0",
    "version": "2.0"
  },
  "bufferViews": [
    {
      "buffer": 0,
      "byteLength": 3000000,
      "name": "floatBufferViews",
      "target": 34963
    },
    {
      "buffer": 0,
      "byteLength": 6000000,
      "byteOffset": 3000000,
      "byteStride": 8,
      "name": "floatBufferViews",
      "target": 34962
    },
    {
      "buffer": 0,
      "byteLength": 18000000,
      "byteOffset": 9000000,
      "byteStride": 12,
      "name": "floatBufferViews",
      "target": 34962
    }
  ],
  "buffers": [
    {
      "byteLength": 27000000,
      "uri": "scene.bin"
    }
  ],
  "images": [
    {
      "uri": "textures/3DModel_baseColor.jpeg"
    }
  ],
  "materials": [
    {
      "doubleSided": true,
      "name": "3DModel",
      "pbrMetallicRoughness": {
        "baseColorTexture": {
          "index": 0
        },
        "metallicFactor": 0.0
      }
    }
  ],
  "meshes": [
    {
      "name": "3DModel_3DModel_0",
      "primitives": [
        {
          "attributes": {
            "NORMAL": 1,
            "POSITION": 0,
            "TEXCOORD_0": 2
          },
          "indices": 3,
          "material": 0,
          "mode": 4
        }
      ]
    },
    {
      "name": "3DModel_3DModel_0",
      "primitives": [
        {
          "attributes": {
            "NORMAL": 5,
            "POSITION": 4,
            "TEXCOORD_0": 6
          },
          "indices": 7,
          "material": 0,
          "mode": 4
        }
      ]
    },
    {
      "name": "3DModel_3DModel_0",
      "primitives": [
        {
          "attributes": {
            "NORMAL": 9,
            "POSITION": 8,
            "TEXCOORD_0": 10
          },
          "indices": 11,
          "material": 0,
          "mode": 4
        }
      ]
    },
    {
      "name": "3DModel_3DModel_0",
      "primitives": [
        {
          "attributes": {
            "NORMAL": 13,
            "POSITION": 12,
            "TEXCOORD_0": 14
          },
          "indices": 15,
          "material": 0,
          "mode": 4
        }
      ]
    },
    {
      "name": "3DModel_3DModel_0",
      "primitives": [
        {
          "attributes": {
            "NORMAL": 17,
            "POSITION": 16,
            "TEXCOORD_0": 18
          },
          "indices": 19,
          "material": 0,
          "mode": 4
        }
      ]
    },
    {
      "name": "3DModel_3DModel_0",
      "primitives": [
        {
          "attributes": {
            "NORMAL": 21,
            "POSITION": 20,
            "TEXCOORD_0": 22
          },
          "indices": 23,
          "material": 0,
          "mode": 4
        }
      ]
    },
    {
      "name": "3DModel_3DModel_0",
      "primitives": [
        {
          "attributes": {
            "NORMAL": 25,
            "POSITION": 24,
            "TEXCOORD_0": 26
          },
          "indices": 27,
          "material": 0,
          "mode": 4
        }
      ]
    },
    {
      "name": "3DModel_3DModel_0",
      "primitives": [
        {
          "attributes": {
            "NORMAL": 29,
            "POSITION": 28,
            "TEXCOORD_0": 30
          },
          "indices": 31,
          "material": 0,
          "mode": 4
        }
      ]
    },
    {
      "name": "3DModel_3DModel_0",
      "primitives": [
        {
          "attributes": {
            "NORMAL": 33,
            "POSITION": 32,
            "TEXCOORD_0": 34
          },
          "indices": 35,
          "material": 0,
          "mode": 4
        }
      ]
    },
    {
      "name": "3DModel_3DModel_0",
      "primitives": [
        {
          "attributes": {
            "NORMAL": 37,
            "POSITION": 36,
            "TEXCOORD_0": 38
          },
          "indices": 39,
          "material": 0,
          "mode": 4
        }
      ]
    },
    {
      "name": "3DModel_3DModel_0",
      "primitives": [
        {
          "attributes": {
            "NORMAL": 41,
            "POSITION": 40,
            "TEXCOORD_0": 42
          },
          "indices": 43,
          "material": 0,
          "mode": 4
        }
      ]
    },
    {
      "name": "3DModel_3DModel_0",
      "primitives": [
        {
          "attributes": {
            "NORMAL": 45,
            "POSITION": 44,
            "TEXCOORD_0": 46
          },
          "indices": 47,
          "material": 0,
          "mode": 4
        }
      ]
    }
  ],
  "nodes": [
    {
      "children": [
        1
      ],
      "matrix": [
        1.0,
        0.0,
        0.0,
        0.0,
        0.0,
        2.220446049250313e-16,
        -1.0,
        0.0,
        0.0,
        1.0,
        2.220446049250313e-16,
        0.0,
        0.0,
        0.0,
        0.0,
        1.0
      ],
      "name": "Sketchfab_model"
    },
    {
      "children": [
        2
      ],
      "matrix": [
        0.009999999776482582,
        0.0,
        0.0,
        0.0,
        0.0,
        0.0,
        0.009999999776482582,
        0.0,
        0.0,
        -0.009999999776482582,
        0.0,
        0.0,
        0.0,
        0.0,
        0.0,
        1.0
      ],
      "name": "3DModel.fbx"
    },
    {
      "children": [
        3
      ],
      "name": "RootNode"
    },
    {
      "children": [
        4,
        5,
        6,
        7,
        8,
        9,
        10,
        11,
        12,
        13,
        14,
        15
      ],
      "matrix": [
        100.0,
        0.0,
        0.0,
        0.0,
        0.0,
        99.99999999999972,
        -7.5497901264043296e-06,
        0.0,
        0.0,
        7.5497901264043296e-06,
        99.99999999999972,
        0.0,
        0.0,
        0.0,
        0.0,
        1.0
      ],
      "name": "3DModel"
    },
    {
      "mesh": 0,
      "name": "3DModel_3DModel_0"
    },
    {
      "mesh": 1,
      "name": "3DModel_3DModel_0"
    },
    {
      "mesh": 2,
      "name": "3DModel_3DModel_0"
    },
    {
      "mesh": 3,
      "name": "3DModel_3DModel_0"
    },
    {
      "mesh": 4,
      "name": "3DModel_3DModel_0"
    },
    {
      "mesh": 5,
      "name": "3DModel_3DModel_0"
    },
    {
      "mesh": 6,
      "name": "3DModel_3DModel_0"
    },
    {
      "mesh": 7,
      "name": "3DModel_3DModel_0"
    },
    {
      "mesh": 8,
      "name": "3DModel_3DModel_0"
    },
    {
      "mesh": 9,
      "name": "3DModel_3DModel_0"
    },
    {
      "mesh": 10,
      "name": "3DModel_3DModel_0"
    },
    {
      "mesh": 11,
      "name": "3DModel_3DModel_0"
    }
  ],
  "samplers": [
    {
      "magFilter": 9729,
      "minFilter": 9987,
      "wrapS": 10497,
      "wrapT": 10497
    }
  ],
  "scene": 0,
  "scenes": [
    {
      "name": "Sketchfab_Scene",
      "nodes": [
        0
      ]
    }
  ],
  "textures": [
    {
      "sampler": 0,
      "source": 0
    }
  ]
}
